# xmcd
#
# Track frame offsets:
#	150
#	10683
#	21942
#	35134
#	44498
#	57071
#	69689
#	81113
#	92727
#	103966
#	115777
#	127831
#	139250
#	152591
#	166416
#	176437
#	190052
#
# Disc length: 2727 seconds
#
# Revision: 0
# Processed by: cddbd v1.5.2PL0 Copyright (c) Steve Scherf et al.
# Submitted via: audiograbber 1.83.01
#
DISCID=df0aa511
DTITLE=George Jones - The Great Lost Hits CD1 1965-1971
DYEAR=2010
DGENRE=Country
TTITLE0=Walk through this world with me
TTITLE1=I can't get there from here
TTITLE2=Things have gone to pieces
TTITLE3=Love bug
TTITLE4=If my heart had windows
TTITLE5=Take me
TTITLE6=Four-o-thirty three
TTITLE7=I'll share my world with you
TTITLE8=Say it's not you
TTITLE9=Small Time Laboring Man
TTITLE10=Milwaukee here I come (Brenda Carter)
TTITLE11=As Long As I Live
TTITLE12=When the Grass Grows Over Me
TTITLE13=If Not For You
TTITLE14=I'm a people
TTITLE15=She's Mine
TTITLE16=Where grass won't grow
EXTD=
EXTT0=
EXTT1=
EXTT2=
EXTT3=
EXTT4=
EXTT5=
EXTT6=
EXTT7=
EXTT8=
EXTT9=
EXTT10=
EXTT11=
EXTT12=
EXTT13=
EXTT14=
EXTT15=
EXTT16=
PLAYORDER=
